<svg width="642" height="618" viewBox="0 0 642 618" fill="none" xmlns="http://www.w3.org/2000/svg">
<path d="M350.135 131.255C357.09 130.565 363.044 127.938 369.779 126.378C382.705 123.384 388.793 130.687 399.487 135.406C402.721 136.834 406.379 137.008 409.614 138.444C411.716 142.143 415.882 148.68 415.151 153.016L414.105 153.475C410.053 151.796 410.773 146.324 405.742 145.155L405.064 145.518C406.947 148.843 411.932 152.387 411.731 156.379L410.994 157.224C410.296 156.688 409.986 156.25 409.516 155.501C408.288 153.547 405.79 152.307 403.849 151.149C404.157 155.823 404.447 160.482 404.527 165.166C406.495 166.506 410.122 168.417 410.664 170.818C410.818 171.502 410.728 171.92 410.321 172.514C409.411 173.835 407.405 173.987 406.798 175.5C405.271 179.297 406.925 194.129 400.63 194.73C395.851 195.187 390.757 190.454 386.856 195.059C383.7 198.785 381.107 205.943 381.671 210.859C382.438 217.562 388.125 223.194 393.234 227.107C398.279 230.969 418.94 241.585 419.656 246.939C419.952 249.148 419.438 251.91 420.086 253.975C421.466 258.361 429.153 268.866 432.588 272.268L433.327 272.357C435.635 268.661 436.272 263.3 437.534 259.099C439.725 251.805 442.008 244.363 444.393 237.131C446.89 229.558 450.263 222.365 452.418 214.665C458.544 209.391 470.477 206.872 471.083 197.49C471.188 195.885 471.021 194.135 469.897 192.886C467.514 190.239 461.526 189.61 458.143 189.639C455.878 189.658 453.629 189.831 451.359 189.797L451.15 189.289C452.336 188.53 453.522 187.788 454.641 186.929C454.656 185.524 454.496 184.739 453.539 183.583C452.686 182.552 452.086 182.527 450.875 182.522C446.06 185.885 443.755 191.709 435.45 190.021C434.462 189.82 433.125 189.311 432.574 188.397C431.836 187.177 431.752 186.137 432.106 184.758C433.178 180.571 436.809 177.123 439.906 174.317C436.8 172.575 433.323 170.684 431.359 167.612C431.355 167.127 431.186 166.564 431.549 166.212C434.027 163.819 439.565 164.459 442.786 164.416C442.139 159.688 440.439 151.299 443.477 147.181C444.337 146.015 445.044 145.933 446.364 145.664C449.333 146.393 451.163 148.78 452.674 151.301C454.977 155.146 455.608 157.663 455.851 162.072C459.863 157.957 464.692 152.862 470.929 152.75C472.229 152.726 473.058 153.041 474.137 153.736C475.174 155.054 475.515 156.478 475.292 158.13C474.964 160.568 473.745 163.195 472.893 165.507C470.343 167.446 462.168 172.034 460.831 173.973C461.121 175.378 469.754 185.819 471.326 188.261C505.408 187.402 539.534 188.509 573.625 187.916C545.457 194.972 525.263 209.216 510.216 234.294C501.335 249.099 494.663 265.796 487.075 281.323L467.715 321.132C464.426 327.855 460.608 334.541 457.744 341.443C467.822 344.943 489.819 351.671 494.65 361.628C495.708 363.814 495.99 366.29 495.153 368.597C492.884 374.848 485.505 379.218 479.716 381.804C473.056 384.777 466.058 386.024 459.041 387.86L418.332 398.635C414.066 399.793 409.578 400.464 405.392 401.865C398.695 404.105 391.024 407.248 384.93 410.802C381.154 413.003 377.641 415.718 373.733 417.67C379.143 423.573 384.685 431.392 393.432 431.7C395.953 431.789 398.622 431.278 401.116 430.892C410.296 423.533 416.827 411.663 421.792 401.089L428.876 399.617C425.644 412.584 416.887 426.06 411.116 438.207C401.918 457.709 392.559 477.133 383.037 496.479C377.507 507.988 371.232 523.067 364.188 533.412C358.202 524.1 353.133 514.254 347.819 504.556C341.891 493.741 335.608 483.125 329.671 472.312C323.031 460.214 316.691 447.818 309.261 436.18L308.764 436.391C301.546 439.483 295.369 446.76 289.865 452.208C280.561 461.405 271.493 470.829 262.661 480.481L243.772 501.123C232.035 514.166 221.22 526.831 204.671 533.939C202.697 534.786 198.945 536.597 196.905 535.719C196.167 535.4 196.292 535.143 196.054 534.434C198.447 526.789 208.786 521.294 212.642 512.179C215.826 504.652 212.718 492.304 218.465 489.309C223.669 486.596 230.182 488.374 236.091 484.932C253.299 474.911 254.24 449.283 266.08 435.617C274.651 425.721 280.899 426.792 290.685 421.148C296.314 417.903 302.206 412.6 305.944 407.288C308.633 403.467 310.438 398.505 312.378 394.271L323.869 368.892C326.706 362.752 330.403 356.749 332.906 350.523C319.107 356.261 305.19 360.615 290.946 365.007C286.43 366.402 282.029 368.229 277.484 369.511C272.386 370.951 267.038 371.814 261.856 372.929C247.564 376.005 234.224 378.906 219.442 377.968C207.371 377.201 194.713 373.339 183.537 368.755C176.279 365.777 171.637 363.114 163.686 361.96C162.135 361.735 158.391 361.956 157.575 360.952C158.484 359.884 159.086 359.625 160.513 359.508C172.788 358.504 193.917 366.281 206.741 368.759C216.037 370.558 225.245 370.894 234.682 370.886C260.309 370.859 276.162 367.372 298.376 354.02C303.599 350.882 309.763 347.602 313.849 343.043C314.648 342.152 315.423 341.24 316.172 340.306C294.408 353.088 265.458 361.556 240.074 360.637C230.654 360.298 221.039 358.48 211.914 356.117C186.548 349.55 170.449 334.704 142.262 338.418C136.924 339.121 132.237 339.775 127.469 342.55C122.386 345.51 116.633 350.958 115.048 356.814C114.503 358.831 114.489 360.707 115.6 362.549C117.536 365.759 121.378 369.244 125.108 370.127C126.166 370.377 127.029 370.306 128.078 370.071C128.892 369.478 129.565 369.215 129.786 368.14C130.509 364.619 128.117 362.946 131.716 359.776C132.763 358.855 133.518 358.895 134.827 358.842C136.921 359.669 138.216 360.954 139.128 363.02C140.067 365.15 140.214 367.702 139.309 369.873C138.479 371.861 136.964 373.168 134.98 373.935C129.863 375.912 123.751 374.522 118.971 372.285C117.062 371.39 115.242 370.322 113.347 369.407C109.748 363.667 106.297 358.012 107.973 350.929C109.642 343.877 115.97 337.972 121.991 334.376C134.862 326.689 147.891 325.397 162.471 325.525C168.531 325.578 174.381 325.72 180.283 327.229C192.843 330.434 204.935 335.753 217.414 339.208C232.589 343.409 254.028 342.99 269.343 339.338C264.098 338.555 259.227 337.41 254.323 335.351C269.136 333.008 274.165 333.789 288.218 326.702C267.551 331.164 245.641 337.232 226.249 324.755C223.09 322.72 221.538 320.231 219.527 317.15C228.416 321.951 235.642 321.607 245.419 320.864C243.006 317.264 236.784 309.016 237.807 304.612C238.534 301.481 244.11 298.339 246.233 295.814C247.824 293.92 249.149 291.71 250.438 289.599C251.101 289.133 251.682 288.138 252.244 287.513C255.511 283.886 259.594 284.111 264.108 283.884C273.002 285.258 290.569 284.656 299.76 283.806C304.691 287.79 308.45 295.558 311.044 301.262C319.511 301.191 328.122 301.523 336.517 302.681C342.418 303.497 348.251 304.84 354.174 305.481C360.2 306.134 366.294 306.116 371.19 302.031C375.004 298.85 377.13 293.927 377.569 289.042C378.699 276.511 365.124 254.395 357.404 245.161C351.241 250.083 344.743 254.642 338.387 259.316C327.964 266.985 317.335 276.645 304.354 279.489C297.75 280.937 290.375 280.243 283.617 280.477C276.893 280.4 254.398 278.726 250.333 282.695C249.91 283.105 249.519 283.529 249.204 284.029C247.52 285.829 246.434 288.165 244.989 290.166C240.603 296.234 235.009 300.477 228.196 303.446C229.697 301.112 231.587 298.717 231.149 295.79C230.355 294.949 230.235 294.594 229.003 294.623C222.048 294.779 216.747 306.759 212.519 311.448C213.03 309.047 214.909 305.824 214.187 303.448C212.868 302.848 210.01 303.636 208.413 303.723C207.755 303.758 207.765 303.562 207.294 303.14C207.78 301.969 223.359 289.434 225.793 286.978C222.575 279.942 219.351 273.716 214.756 267.474C205.25 267.251 193.93 266.836 184.764 264.128C171.419 260.181 158.961 250.063 152.559 237.695C151.801 236.23 151.301 235.059 151.83 233.457C153.445 233.061 154.205 233.848 155.345 234.964C165.78 245.186 176.917 253.266 190.993 257.792C194.11 258.796 197.335 259.148 200.458 260.135C203.43 261.074 208.775 262.899 211.731 261.366L211.586 260.414C209.574 258.749 207.137 258.196 204.594 257.926C194.641 256.875 184.487 252.784 175.744 247.921C169.329 244.354 157.623 236.725 153.103 230.915C151.507 228.863 150.433 226.059 149.756 223.577C147.854 216.605 148.597 212.032 152.111 205.973C152.19 210.714 152.625 213.982 154.894 218.246C162.924 233.338 183.297 245.297 199.291 250.096C201.405 250.729 203.18 251.31 205.184 250.23C205.261 249.725 205.342 249.271 205.221 248.762C204.359 245.186 199.828 238.75 197.907 235.375C185.94 214.351 173.879 198.901 149.717 191.519C146.929 190.667 132.499 189.12 131.995 188.687C131.889 188.595 131.792 188.494 131.69 188.398L131.638 188.819L131.06 188.626C132.245 187.918 133.719 188.012 135.067 187.961C140.37 187.761 178.318 187.482 180.477 189.074C182.955 190.901 185.378 198.346 186.988 201.373C191.206 209.301 195.845 215.519 202.463 221.632C224.13 241.645 254.172 249.393 283.104 248.267C286.341 252.213 289.377 260.163 292.868 265.286C302.05 263.539 309.631 261.435 317.56 256.367C332.525 246.801 354.914 222.606 362.63 206.194C365.023 201.103 366.176 195.719 367.395 190.254C364.536 191.827 361.598 193.625 358.517 194.718C352.868 196.724 348.673 195.388 343.481 192.893L343.294 191.401C346.435 191.126 349.932 191.483 353.118 191.492L353.089 190.798L353.615 190.98L352.857 191.464L354.083 191.227C349.702 189.037 344.604 188.627 340.412 186.57C339.99 185.955 339.718 185.586 339.047 185.231C338.325 184.849 338.456 184.817 338.156 184.1C339.056 183.531 339.954 183.211 340.958 182.866C340.906 180.24 336.481 173.092 334.932 170.821C333.771 170.983 333.699 170.886 332.89 171.821C332.821 172.591 332.723 173.389 332.857 174.154C333.209 176.174 333.657 179.062 332.803 180.966C332.77 181.044 332.727 181.119 332.689 181.195C329.939 176.702 328.857 172.367 330.09 167.135C330.61 164.919 331.368 162.773 331.865 160.55C326.294 161.405 319.921 162.708 314.988 159.082C313.062 157.667 311.706 155.634 311.383 153.242C310.645 147.788 312.389 141.91 315.717 137.556C318.559 133.838 322.699 130.893 327.435 130.364C331.569 129.903 335.873 131.437 339.018 134.118C340.492 135.373 341.74 136.973 343.029 138.419C345.451 136.084 347.82 133.696 350.135 131.255ZM398.76 332.397C409.502 332.993 420.124 333.694 430.739 335.552C437.545 336.743 444.188 338.675 451.009 339.846C453.881 332.199 458.417 324.743 461.961 317.342C469.416 301.777 476.636 286.066 484.233 270.573C488.947 260.958 494.817 251.401 497.512 240.95C499.629 232.746 500.009 221.709 496.52 213.912C494.402 209.18 490.12 202.767 485.305 200.488C482.55 204.184 481.83 209.023 478.517 212.184C470.521 219.817 459.522 219.166 454.785 230.859C448.822 245.576 456.328 289.648 441.362 297.407C430.022 294.168 422.371 284.216 414.034 276.417C411.12 297.451 409.75 312.151 398.35 330.901L398.356 332.088L398.76 332.397ZM364.482 400.243C374.691 400 381.776 395.478 390.441 390.523C392.264 389.48 394.168 387.971 396.096 387.227C404.11 384.293 418.31 375.443 425.784 370.658C413.818 371.343 402.03 371.153 390.057 370.651C384.041 370.397 377.652 369.491 371.66 369.828C368.37 372.298 357.988 383.396 357.5 387.356C356.945 391.864 361.934 396.871 364.482 400.243ZM476.023 204.2C477.614 202.597 479.208 201.151 480.116 199.045C480.091 197.704 480.127 197.069 478.996 196.121C478.225 195.473 477.01 194.996 476.099 194.551C475.334 196.981 472.697 203.056 473.879 205.347C475.033 205.151 475.175 204.952 476.023 204.2ZM467.706 187.749C467.017 185.13 466.319 183.167 463.934 181.651C462.982 181.045 461.756 180.735 460.681 180.42C461.109 182.849 461.001 185.636 462.365 187.657C464.128 188.425 465.871 188.008 467.706 187.749Z" fill="#FCF8ED"/>
<path d="M244.079 85.6631L245.355 86.3086C245.366 86.3294 246.184 103.758 247.824 108.712C257.309 137.375 281.468 162.451 303.324 182.38C307.903 186.556 341.481 216.678 341.813 219.412C337.93 219.381 304.328 198.935 295.839 196.182L295.582 196.1C297.979 198.017 300.391 199.945 302.903 201.706C311.073 207.434 319.644 211.736 328.264 216.62C330.391 217.826 332.448 219.783 334.736 220.613C335.723 220.971 336.434 220.984 337.464 220.777C338.367 220.596 339.123 220.476 340.048 220.465C340.527 220.459 340.576 220.685 340.901 221.008C340.58 222.14 340.376 222.237 339.521 222.986C335.355 222.689 331.151 221.671 327.058 220.844C305.048 216.396 294.276 207.631 276.572 195.531C282.025 201.795 288.349 207.408 295.705 211.366C301.695 214.588 307.497 217.103 312.981 221.193C290.17 218.501 261.019 201.771 246.594 184.066C233.701 168.241 226.198 145.462 228.384 124.981C229.637 113.247 234.521 93.3771 244.079 85.6631Z" fill="#FCF8ED"/>
<path d="M180.384 154.184C181.017 154.449 181.507 154.799 182.069 155.184C183.805 160.282 187.001 165.164 190.03 169.589C207.451 195.047 250.061 212.656 279.092 220.239C283.236 221.322 287.581 221.424 291.754 222.349C295.748 223.233 299.551 224.588 303.608 225.318C310.757 226.604 318.066 225.966 325.109 227.268L325.235 227.752C313.207 231.363 281.816 225.437 268.657 223.95C274.324 226.677 280.378 227.63 286.493 228.823C300.463 231.549 313.396 233.83 327.67 231.708C327.639 231.803 327.619 231.902 327.576 231.993C325.483 236.493 296.417 236.257 291.381 236.037C286.118 235.809 276.034 234.03 271.408 235.408C279.943 239.562 295.757 239.316 305.251 239.223C308.352 239.194 311.58 238.659 314.658 239.062L314.351 239.528C312.175 240.448 309.944 241.164 307.601 241.52C303.372 242.17 298.617 241.413 294.284 241.752C271.6 243.528 256.941 244.53 235.165 236.444C227.536 233.612 220.882 230.461 214.289 225.596C200.495 215.418 187.287 198.24 183.686 181.212C181.787 172.23 181.747 163.197 180.384 154.184Z" fill="#FCF8ED"/>
<path d="M321.726 359.042L322.631 359.497L322.952 360.588C316.124 374.459 306.225 401.528 297.506 412.26L296.65 412.169C293.98 409.115 292.453 404.712 290.166 401.267C285.848 395.038 278.474 381.118 275.822 374.071C281.41 372.108 287.214 371.12 292.879 369.456C297.014 368.242 300.967 366.446 305.092 365.205C311.147 363.385 316.227 362.319 321.726 359.042Z" fill="#FCF8ED"/>
<path d="M75.5451 243.814C82.3381 243.301 84.9311 244.963 90.1766 248.932C87.1237 248.18 83.3518 246.478 80.2115 247.321C77.2669 248.113 75.8031 250.886 74.3785 253.324C74.3241 255.243 74.1743 257.344 74.6628 259.218C77.1042 268.579 87.5285 276.868 95.5296 281.682C106.126 288.06 119.405 292.439 131.571 294.59C152.845 298.353 188.859 297.095 209.764 291.904C209.995 292.04 210.232 292.508 210.384 292.736C210.089 293.049 210.072 293.1 209.647 293.361C206.21 295.475 200.272 295.464 196.258 296.341C189.211 297.878 182.19 299.857 175.063 300.97C158.167 303.607 138.397 303.178 121.787 299.366C101.813 294.78 81.9039 285.33 70.735 267.307C68.1058 263.066 66.433 258.507 67.676 253.498C68.727 249.267 71.8967 245.976 75.5451 243.814Z" fill="#FCF8ED"/>
<path d="M332.69 181.195C332.728 181.119 332.77 181.045 332.804 180.966C333.657 179.062 333.209 176.174 332.857 174.155C332.723 173.389 332.821 172.591 332.89 171.822C333.699 170.887 333.771 170.983 334.932 170.821C336.481 173.092 340.906 180.24 340.958 182.867C339.954 183.211 339.056 183.532 338.156 184.1C338.456 184.817 338.325 184.849 339.048 185.23C339.718 185.585 339.99 185.956 340.412 186.57C337.719 185.361 334.373 183.705 332.69 181.195Z" fill="#FCF8ED"/>
</svg>
