<svg aria-hidden="true" style="position: absolute; width: 0; height: 0; overflow: hidden;" version="1.1" xmlns="http://www.w3.org/2000/svg" xmlns:xlink="http://www.w3.org/1999/xlink">
<defs>

<symbol id="icon-instheader" viewBox="0 0 32 32">
<path stroke-linejoin="miter" stroke-linecap="butt" stroke-miterlimit="4" stroke-width="2.4" d="M1.6 22.4v-12.8c0-2.122 0.843-4.157 2.343-5.657s3.535-2.343 5.657-2.343h12.8c2.122 0 4.157 0.843 5.657 2.343s2.343 3.535 2.343 5.657v12.8c0 2.122-0.843 4.157-2.343 5.657s-3.535 2.343-5.657 2.343h-12.8c-2.122 0-4.157-0.843-5.657-2.343s-2.343-3.535-2.343-5.657z"></path>
<path fill="none" stroke="#fcf8ed" style="stroke: var(--color2, #fcf8ed)" stroke-linejoin="round" stroke-linecap="round" stroke-miterlimit="4" stroke-width="2.4" d="M16 22.4c1.697 0 3.325-0.674 4.525-1.875s1.875-2.828 1.875-4.525c0-1.697-0.674-3.325-1.875-4.526s-2.828-1.874-4.525-1.874c-1.697 0-3.325 0.674-4.526 1.874s-1.874 2.828-1.874 4.526c0 1.697 0.674 3.325 1.874 4.525s2.828 1.875 4.526 1.875z"></path>
</symbol>

<symbol id="icon-whatsappheader" viewBox="0 0 32 32">
<path fill="#353334" style="fill: var(--color1, #353334)" d="M14.986 0.236c-4.009 0.43-7.641 2.348-10.199 5.395-1.798 2.139-2.916 4.571-3.411 7.409-0.173 1.028-0.191 3.662-0.024 4.72 0.293 1.852 0.932 3.71 1.81 5.264l0.329 0.58-0.848 3.035c-0.46 1.673-0.842 3.137-0.848 3.256-0.012 0.287 0.149 0.514 0.412 0.585 0.197 0.054 0.508-0.030 3.322-0.896l3.101-0.95 0.418 0.239c1.386 0.812 3.256 1.452 5.162 1.774 1.016 0.167 3.716 0.155 4.75-0.024 3.364-0.586 6.255-2.097 8.544-4.475 2.228-2.312 3.579-4.983 4.14-8.209 0.114-0.651 0.126-0.968 0.126-2.449 0-1.87-0.060-2.432-0.436-3.902-1.362-5.264-5.652-9.559-10.921-10.921-1.356-0.347-1.996-0.424-3.662-0.442-0.836-0.012-1.631-0.006-1.762 0.012zM19.569 29.894c3.859 0.347 7.138-3.746 9.177-6.247 4.588-9.177 0.484-14.366 0.992-12.98 0.651 1.762 0.962 3.913 0.824 5.706-0.155 2.007-0.574 3.573-1.416 5.299-2.491 5.090-7.922 8.257-13.491 7.863-2.079-0.149-3.937-0.663-5.598-1.541-1.279-0.681-1.279-0.681-1.434-0.645-0.084 0.018-1.296 0.388-2.706 0.819-1.404 0.43-2.563 0.771-2.581 0.759-0.012-0.018 0.299-1.183 0.693-2.593 0.394-1.416 0.723-2.677 0.729-2.808 0.006-0.203-0.048-0.346-0.323-0.807-1.189-1.996 22.948-11.46 22.781-13.856-0.281-3.943-19.374-4.588-20.903-1.53 1.756-1.762-3.85 21.593-2.977 21.593 1.625-0.418 14.733 0.831 16.233 0.968z"></path>
<path fill="#fcf8ed" style="fill: var(--color2, #fcf8ed)" d="M10.826 7.403c-0.371 0.067-0.396 0.078-0.659 0.368-0.844 0.933-1.57 2.425-1.76 3.632-0.072 0.446-0.072 1.383 0 1.788 0.139 0.772 0.525 1.783 1.086 2.819 2.095 3.865 5.628 6.388 9.056 7.129 1.081 0.233 2.678 0.145 3.569 0 1.513-0.249 2.266-0.595 2.941-1.885 0.211-0.399 0.499-1.259 0.592-1.757 0.098-0.549 0.046-0.622-0.777-1.109-0.381-0.228-1.081-0.663-1.565-0.974-1.251-0.813-1.41-0.891-1.853-0.891-0.494 0-0.618 0.088-1.143 0.798-0.535 0.72-1.328 1.56-1.472 1.56s-0.87-0.404-1.529-0.845c-2.002-1.347-3.675-3.073-3.969-4.088-0.041-0.15-0.026-0.187 0.257-0.503 0.458-0.523 0.716-0.922 0.829-1.29 0.134-0.43 0.129-0.7-0.010-1.135-0.129-0.404-1.024-2.213-1.426-2.881-0.304-0.503-0.484-0.679-0.767-0.762-0.257-0.067-0.927-0.057-1.4 0.026zM12.18 8.89c0.427 0.736 0.721 1.306 1.014 1.959 0.226 0.503 0.549 0.154 0.528 0.345-0.031 0.275-2.176-3.983-2.69-3.423-0.206 0.223-1.884 3.601-1.9 3.674-0.093 0.373 0.638 4.415 1.035 5.078 0.885 1.472 4.7 4.777 6.63 5.726 0.71 0.347 6.407 0.461 6.876 0.228 0.432-0.212 0.924-2.577 1.47-3.323 0.206-0.285-3.687-1.553-3.677-1.563 0.031-0.041 0.299 0.109 1.091 0.627 0.443 0.29 1.071 0.689 1.395 0.886s0.597 0.363 0.602 0.368c0.005 0.005-0.046 0.202-0.113 0.441-0.612 2.181-2.285 3-5.271 2.565-1.611-0.233-3.248-0.985-4.792-2.192-0.597-0.466-1.735-1.617-2.285-2.311-1.163-1.471-2.244-3.415-2.558-4.617-0.129-0.487-0.154-1.435-0.052-1.912 0.113-0.523 0.314-1.067 0.576-1.58 0.314-0.601 0.798-1.295 0.973-1.384 0.072-0.036 0.293-0.067 0.499-0.067h0.371l0.278 0.477z"></path>
</symbol>

<symbol id="icon-mailheader" viewBox="0 0 36 32">
<path d="M1.383 6.576v18.851c0 1.25 0.496 2.449 1.38 3.333s2.083 1.38 3.333 1.38h23.564c1.25 0 2.449-0.497 3.333-1.38s1.38-2.082 1.38-3.333v-18.851c0-1.25-0.496-2.449-1.38-3.332s-2.083-1.38-3.333-1.38h-23.564c-1.25 0-2.449 0.496-3.333 1.38s-1.38 2.083-1.38 3.332z"></path>
<path fill="none" stroke="#fcf8ed" style="stroke: var(--color2, #fcf8ed)" stroke-linejoin="round" stroke-linecap="round" stroke-miterlimit="4" stroke-width="1.2762" d="M6.095 8.933l11.782 7.069 11.782-7.069"></path>
</symbol>

<symbol id="icon-inst" viewBox="0 0 32 32">
    <path d="M27.801 32.385h-23.602c-1.216 0-2.381-0.483-3.241-1.342s-1.342-2.025-1.342-3.241v-23.602c0-1.216 0.483-2.381 1.342-3.241s2.025-1.342 3.241-1.342h23.602c1.216 0 2.381 0.483 3.241 1.342s1.342 2.025 1.342 3.241v23.602c0 1.216-0.483 2.381-1.342 3.241s-2.025 1.342-3.241 1.342zM4.199 1.45c-0.729 0-1.429 0.29-1.945 0.805s-0.805 1.215-0.805 1.945v23.602c0 0.729 0.29 1.429 0.805 1.945s1.215 0.805 1.945 0.805h23.602c0.729 0 1.429-0.29 1.945-0.805s0.805-1.215 0.805-1.945v-23.602c0-0.729-0.29-1.429-0.805-1.945s-1.215-0.805-1.945-0.805h-23.602z"></path>
    <path d="M16 24.422c-1.666-0.002-3.294-0.497-4.678-1.424s-2.462-2.243-3.099-3.783c-0.636-1.54-0.802-3.233-0.475-4.867s1.129-3.134 2.308-4.311c1.179-1.177 2.68-1.978 4.314-2.302s3.327-0.156 4.866 0.482 2.854 1.718 3.779 3.104c0.925 1.385 1.419 3.014 1.418 4.68-0.003 2.235-0.893 4.377-2.474 5.956s-3.725 2.466-5.959 2.466zM16 9.4c-1.303 0.002-2.576 0.39-3.658 1.115s-1.926 1.754-2.423 2.958c-0.498 1.204-0.627 2.528-0.373 3.806s0.882 2.451 1.803 3.372c0.921 0.921 2.095 1.549 3.372 1.803s2.602 0.125 3.806-0.373 2.233-1.341 2.958-2.424c0.725-1.082 1.113-2.355 1.115-3.658 0-1.751-0.695-3.429-1.933-4.667s-2.916-1.933-4.667-1.933z"></path>
    <path d="M25.533 8.493c1.088 0 1.971-0.882 1.971-1.971s-0.882-1.971-1.971-1.971c-1.088 0-1.971 0.882-1.971 1.971s0.882 1.971 1.971 1.971z"></path>
</symbol>

<symbol id="icon-teleg" viewBox="0 0 32 32">
    <path d="M31.834 3.303c0.003-0.642-0.233-1.261-0.663-1.738-0.398-0.23-0.838-0.376-1.294-0.431s-0.918-0.016-1.359 0.113c-1.618 0.357-3.217 0.8-4.788 1.326-0.809 0.239-1.605 0.517-2.387 0.822-1.167 0.438-2.308 0.942-3.462 1.446-2.123 0.927-4.195 1.968-6.207 3.117-2.019 1.136-3.92 2.469-5.677 3.979l-4.549 4.072-1.048 1.048c-0.129 0.136-0.241 0.287-0.332 0.451-0.042 0.116-0.042 0.242 0 0.358 0.027 0.146 0.090 0.282 0.182 0.398s0.212 0.207 0.348 0.265c0.512 0.175 1.050 0.265 1.592 0.265 0.584 0 1.618 0 2.507 0.133 0.449-0.014 0.898 0.049 1.326 0.186l0.252 2.958c0.080 0.849 0.119 1.512 0.119 2.135 0 0.995-0.133 2.719-0.133 4.072 0 0.12 0.048 0.234 0.132 0.319s0.199 0.132 0.319 0.132 0.234-0.047 0.319-0.132c0.085-0.085 0.132-0.199 0.132-0.319 0-1.326 0.172-3.077 0.186-4.072 0-0.65 0-1.326-0.093-2.215s-0.093-2.003-0.199-2.653c-0.106-0.65-0.119-1.008-1.777-1.326-0.982-0.119-2.334-0.186-3.064-0.225l-0.73-0.106 0.769-0.756 4.576-3.979c1.694-1.471 3.534-2.764 5.491-3.86 1.979-1.067 4.011-2.032 6.088-2.892 1.127-0.478 2.268-0.942 3.409-1.326 2.427-0.899 4.931-1.574 7.481-2.016 1.194 0.517 1.021 0.968 0.995 1.326-0.049 0.67-0.169 1.332-0.358 1.976l-1.711 5.783c-0.345 1.154-0.716 2.228-1.101 3.276-0.942 2.533-1.976 4.908-2.931 7.653-0.224 0.623-0.49 1.23-0.796 1.817-0.491 0.928-1.048 1.817-1.565 2.653-0.146 0.27-0.314 0.528-0.504 0.769l-0.133 0.159-0.080-0.119-1.326-2.082c-0.654-0.897-1.354-1.761-2.096-2.586-0.744-0.833-1.537-1.621-2.374-2.361-0.57-0.477-2.175-1.804-2.653-0.849-0.133 0.172-0.279 0.504-0.358 0.597l-1.552 2.255-1.565 2.772c-0.557 0.968-1.22 1.883-1.817 2.852-0.252 0.424-0.504 0.862-0.716 1.326-0.046 0.095-0.052 0.204-0.017 0.304s0.108 0.181 0.203 0.227c0 0 0.371 0.305 0.915-0.106s0.703-0.517 1.008-0.756c0.305-0.239 1.008-0.73 1.499-1.074s0.889-0.597 1.326-0.902l2.016-1.406c1.061-0.756 2.082-1.539 3.077-2.374l0.226 0.252c0.716 0.836 1.393 1.711 1.976 2.533l1.194 2.043c0.122 0.226 0.259 0.443 0.411 0.65 0.076 0.080 0.169 0.142 0.272 0.181s0.214 0.054 0.324 0.044c0.314-0.052 0.608-0.189 0.849-0.398 0.377-0.366 0.703-0.78 0.968-1.234 0.544-0.836 1.141-1.751 1.658-2.653 0.356-0.634 0.662-1.295 0.915-1.976 0.982-2.732 2.069-5.080 3.024-7.587 0.424-1.088 0.809-2.188 1.167-3.369l1.724-5.836c0.322-1.079 0.469-2.203 0.438-3.329zM12.097 25.559c-0.458 0.296-0.901 0.614-1.326 0.955-0.451 0.358-0.875 0.73-1.326 1.127l-0.995 1.021c0.517-0.783 1.061-1.539 1.539-2.334l1.645-2.653 1.525-2.188c0.066-0.080 0.265-0.411 0.345-0.544s0.265 0.172 0.411 0.279 0.597 0.544 0.769 0.69c0.451 0.411 0.902 0.875 1.326 1.326-1.26 0.836-2.626 1.512-3.913 2.321z"></path>
    <path d="M18.171 12.826c-0.703 0.769-1.326 1.578-2.016 2.414s-1.486 1.91-2.162 2.918c-0.146 0.212-0.279 0.438-0.411 0.65-0.345 1.048 0.146 0.889 1.061 0.106l0.119-0.186c0.743-0.942 1.578-1.83 2.361-2.653 1.26-1.446 2.653-2.772 3.979-4.085l2.945-2.772c1.446-1.326 2.892-2.732 4.311-4.125 2.149-3.767-3.701 1.539-6.857 4.417-1.154 1.101-2.268 2.149-3.329 3.316z"></path>
    <path d="M17.642 8.767c-1.844 1.247-3.621 2.573-5.398 3.979l-4.191 3.409c-0.265 0.239-0.57 0.491-0.875 0.743-0.637 0.796-0.544 1.088 0.902 0.451 0.212-0.146 0.424-0.292 0.597-0.438l4.377-3.13 10.903-7.52c1.074-0.73 2.109-1.459 3.183-2.162 0.252-0.889-1.631-0.265-3.183 0.65l-0.703 0.424c-1.883 1.18-3.78 2.334-5.61 3.594z"></path>
</symbol>
<symbol id="icon-leftRigrh" viewBox="0 0 64 32">
    <path d="M16.36 30.36l-14.36-14.297 14.297-14.293 2.357 2.293-10.25 10.27h47.197l-10.25-10.267 2.357-2.3 14.293 14.3-14.293 14.293-2.423-2.297 10.314-10.333h-47.257l10.313 10.333-2.293 2.297z"></path>
</symbol>
<symbol id="icon-tt" viewBox="0 0 32 32">
    <path d="M10.567 2.933h10.783l0.633 0.033 0.533 0.050 0.433 0.067 0.433 0.1 0.483 0.15 0.467 0.183 0.45 0.217 0.367 0.2 0.367 0.217 0.25 0.167 0.3 0.217 0.233 0.183 0.167 0.15 0.067 0.050v0.033l0.067 0.033 0.467 0.467 0.117 0.133 0.217 0.267 0.217 0.3 0.217 0.317 0.217 0.35 0.15 0.267 0.2 0.417 0.233 0.6 0.133 0.417 0.117 0.5 0.083 0.483 0.050 0.517 0.017 0.3 0.017 0.883v8.85l-0.017 1.45-0.033 0.633-0.050 0.467-0.117 0.567-0.117 0.45-0.133 0.4-0.167 0.4-0.317 0.633-0.2 0.35-0.183 0.283-0.133 0.183-0.233 0.317-0.15 0.183-0.183 0.2-0.1 0.117h-0.033l-0.033 0.067-0.183 0.183-0.133 0.117-0.167 0.15-0.267 0.2-0.25 0.183-0.217 0.15-0.25 0.167-0.367 0.217-0.383 0.2-0.45 0.183-0.467 0.167-0.417 0.117-0.533 0.117-0.433 0.067-0.583 0.050-0.383 0.017h-11.067l-0.633-0.050-0.5-0.067-0.467-0.1-0.4-0.117-0.433-0.15-0.55-0.25-0.4-0.2-0.317-0.183-0.45-0.3-0.317-0.233-0.233-0.2-0.167-0.15-0.267-0.25-0.233-0.25-0.15-0.167-0.183-0.233-0.233-0.317-0.183-0.267-0.2-0.317-0.25-0.433-0.25-0.567-0.217-0.6-0.117-0.417-0.117-0.6-0.067-0.483-0.033-0.433-0.017-0.4-0.017-0.767v-9.15l0.017-0.817 0.017-0.433 0.050-0.5 0.1-0.6 0.15-0.6 0.15-0.45 0.167-0.4 0.183-0.383 0.217-0.383 0.133-0.233 0.117-0.183 0.233-0.333 0.1-0.133 0.217-0.3 0.2-0.217 0.083-0.1 0.133-0.117 0.067-0.083h0.033l0.017-0.050 0.133-0.117 0.2-0.183 0.217-0.167 0.3-0.217 0.25-0.183 0.367-0.233 0.35-0.2 0.417-0.2 0.45-0.183 0.4-0.133 0.6-0.15 0.483-0.083 0.45-0.050zM10.9 5.033l-0.5 0.017-0.6 0.050-0.45 0.083-0.433 0.117-0.483 0.183-0.483 0.233-0.317 0.2-0.217 0.15-0.267 0.2-0.2 0.183-0.067 0.050v0.033h-0.033l-0.083 0.1-0.1 0.083-0.117 0.133-0.033 0.067h-0.033l-0.233 0.267v0.033h-0.033l-0.167 0.233-0.2 0.333-0.2 0.367-0.167 0.35-0.167 0.433-0.133 0.517-0.083 0.517-0.033 0.35-0.017 0.317-0.017 1.933v8.183l0.017 0.733 0.050 0.567 0.067 0.417 0.1 0.417 0.15 0.45 0.183 0.433 0.2 0.383 0.267 0.4 0.183 0.233 0.15 0.167 0.117 0.133 0.417 0.417 0.133 0.117 0.217 0.183 0.35 0.233 0.35 0.2 0.25 0.133 0.45 0.2 0.45 0.15 0.4 0.1 0.317 0.050 0.617 0.050 0.7 0.017h6.883l3.583-0.017 0.517-0.050 0.383-0.067 0.35-0.083 0.467-0.167 0.35-0.15 0.267-0.133 0.233-0.133 0.45-0.3 0.217-0.167 0.167-0.15 0.133-0.117 0.233-0.233 0.117-0.133 0.15-0.167 0.15-0.183 0.2-0.283 0.183-0.317 0.2-0.383 0.133-0.317 0.133-0.4 0.117-0.45 0.083-0.483 0.033-0.383 0.017-11.083-0.017-0.383-0.083-0.65-0.083-0.367-0.117-0.367-0.133-0.35-0.15-0.333-0.183-0.35-0.217-0.333-0.2-0.267-0.217-0.25-0.267-0.283-0.167-0.15-0.233-0.2-0.283-0.217-0.367-0.233-0.4-0.217-0.367-0.167-0.45-0.167-0.283-0.083-0.517-0.1-0.433-0.050-0.25-0.017-0.533-0.017z"></path>
    <path d="M17.117 6.933h0.367l0.217 0.050 0.217 0.117 0.15 0.133 0.15 0.2 0.15 0.283 0.2 0.467 0.2 0.367 0.183 0.283 0.15 0.2 0.183 0.233 0.2 0.217 0.383 0.383 0.183 0.15 0.317 0.217 0.4 0.233 0.267 0.133 0.233 0.1 0.433 0.117 0.45 0.067 0.583 0.050 0.267 0.050 0.233 0.117 0.183 0.15 0.15 0.167 0.117 0.217 0.033 0.117 0.017 0.25-0.033 0.233-0.067 0.167-0.117 0.2-0.233 0.25-0.167 0.117-0.183 0.050-0.133 0.017h-0.717l-0.55-0.067-0.467-0.1-0.333-0.1-0.517-0.183-0.4-0.183-0.233-0.117-0.367-0.217-0.267-0.183-0.183-0.15-0.233-0.2-0.15-0.1 0.017 0.033-0.017 2.967-0.017 5.633-0.033 0.583-0.033 0.3-0.083 0.35-0.117 0.383-0.167 0.4-0.15 0.317-0.167 0.283-0.15 0.217-0.217 0.283-0.183 0.217-0.183 0.2-0.133 0.133-0.183 0.15-0.233 0.183-0.333 0.233-0.267 0.15-0.25 0.133-0.417 0.167-0.433 0.133-0.5 0.1-0.433 0.050-0.233 0.017h-0.45l-0.35-0.033-0.433-0.067-0.383-0.1-0.317-0.117-0.433-0.183-0.317-0.167-0.35-0.217-0.233-0.183-0.183-0.15-0.267-0.25-0.183-0.183-0.15-0.183-0.167-0.217-0.2-0.283-0.25-0.417-0.233-0.517-0.133-0.417-0.133-0.633-0.050-0.483v-0.533l0.033-0.367 0.1-0.517 0.1-0.333 0.1-0.3 0.167-0.383 0.133-0.267 0.167-0.283 0.2-0.283 0.167-0.217 0.2-0.233 0.183-0.2 0.2-0.183 0.233-0.183 0.3-0.217 0.283-0.183 0.367-0.2 0.45-0.183 0.417-0.117 0.45-0.083 0.4-0.050 0.383-0.017 0.283 0.033 0.233 0.083 0.167 0.117 0.117 0.1 0.15 0.183 0.083 0.133 0.067 0.217v0.4l-0.067 0.2-0.1 0.167-0.217 0.267-0.167 0.117-0.217 0.067-0.717 0.083-0.383 0.083-0.333 0.117-0.267 0.133-0.283 0.167-0.233 0.183-0.233 0.233-0.15 0.167-0.15 0.233-0.133 0.233-0.1 0.2-0.133 0.417-0.083 0.383-0.017 0.15v0.433l0.067 0.383 0.1 0.35 0.167 0.4 0.167 0.283 0.183 0.233 0.25 0.267 0.183 0.15 0.317 0.217 0.317 0.167 0.25 0.1 0.383 0.1 0.233 0.033 0.383 0.017 0.3-0.033 0.4-0.083 0.267-0.083 0.333-0.15 0.233-0.133 0.233-0.167 0.167-0.15h0.033v-0.033l0.083-0.067 0.15-0.183 0.133-0.167 0.15-0.25 0.133-0.267 0.1-0.317 0.083-0.417 0.033-0.483v-0.6l-0.017-4.383v-1.017l0.017-5.733 0.017-0.333 0.050-0.217 0.1-0.183 0.133-0.167 0.083-0.1 0.2-0.15 0.167-0.083z"></path>
</symbol>

<symbol id="icon-arrow" viewBox="0 0 24 24">
    <path d="M7.406 8.578l4.594 4.594 4.594-4.594 1.406 1.406-6 6-6-6z"></path>
</symbol>

<!-- burgerMenu -->
<symbol id="icon-burger" viewBox="0 0 41 32">
<path d="M36.883 1.004h-32.624c-1.689 0-3.058 1.369-3.058 3.058v0c0 1.689 1.369 3.058 3.058 3.058h32.624c1.689 0 3.058-1.369 3.058-3.059s-1.369-3.058-3.058-3.058z"></path>
<path d="M36.843 13.401h-24.794c-1.712 0-3.099 1.388-3.099 3.099s1.388 3.099 3.099 3.099h24.794c1.712 0 3.099-1.388 3.099-3.099s-1.388-3.099-3.099-3.099z"></path>
<path d="M36.883 25.472h-32.624c-1.689 0-3.058 1.369-3.058 3.058v0c0 1.689 1.369 3.058 3.058 3.058h32.624c1.689 0 3.058-1.369 3.058-3.058s-1.369-3.058-3.058-3.058z"></path>
</symbol>

<symbol id="icon-close" viewBox="0 0 32 32">
<path d="M29.855 5.761c0.244-0.236 0.439-0.518 0.573-0.829s0.205-0.647 0.208-0.986c0.003-0.339-0.061-0.676-0.19-0.99s-0.318-0.6-0.558-0.84c-0.24-0.24-0.525-0.43-0.839-0.559s-0.651-0.193-0.99-0.191-0.675 0.073-0.986 0.207c-0.312 0.134-0.594 0.328-0.83 0.572l-10.243 10.239-10.239-10.239c-0.234-0.251-0.516-0.452-0.83-0.592s-0.652-0.215-0.995-0.221c-0.343-0.006-0.684 0.057-1.002 0.186s-0.607 0.32-0.85 0.563c-0.243 0.243-0.434 0.532-0.563 0.85s-0.192 0.659-0.186 1.002c0.006 0.343 0.081 0.682 0.221 0.995s0.341 0.596 0.592 0.83l10.232 10.243-10.239 10.239c-0.451 0.484-0.697 1.125-0.685 1.787s0.28 1.294 0.748 1.762c0.468 0.468 1.1 0.737 1.762 0.748s1.303-0.234 1.787-0.685l10.246-10.239 10.239 10.243c0.484 0.451 1.125 0.697 1.787 0.686s1.294-0.28 1.762-0.748c0.468-0.468 0.737-1.1 0.748-1.762s-0.234-1.303-0.686-1.787l-10.232-10.243 10.236-10.239z"></path>
</symbol>

<symbol id="icon-ViaVitalisLogo" viewBox="0 0 33 32">
    <path d="M18.13 6.796c0.36-0.036 0.668-0.172 1.017-0.253 0.669-0.155 0.985 0.223 1.538 0.467 0.167 0.074 0.357 0.083 0.524 0.157 0.109 0.192 0.325 0.53 0.287 0.755l-0.054 0.024c-0.21-0.087-0.173-0.37-0.433-0.431l-0.035 0.019c0.098 0.172 0.356 0.356 0.345 0.562l-0.038 0.044c-0.036-0.028-0.052-0.050-0.077-0.089-0.064-0.101-0.193-0.165-0.293-0.225 0.016 0.242 0.031 0.483 0.035 0.726 0.102 0.069 0.29 0.168 0.318 0.293 0.008 0.035 0.003 0.057-0.018 0.088-0.047 0.068-0.151 0.076-0.182 0.155-0.079 0.197 0.007 0.965-0.319 0.996-0.247 0.024-0.511-0.221-0.713 0.017-0.163 0.193-0.298 0.564-0.268 0.818 0.040 0.347 0.334 0.639 0.599 0.841 0.261 0.2 1.331 0.75 1.368 1.027 0.015 0.114-0.011 0.257 0.022 0.364 0.071 0.227 0.47 0.771 0.647 0.947l0.038 0.005c0.119-0.191 0.152-0.469 0.218-0.687 0.113-0.378 0.232-0.763 0.355-1.137 0.129-0.392 0.304-0.765 0.416-1.163 0.317-0.273 0.935-0.404 0.966-0.889 0.005-0.083-0.003-0.174-0.061-0.238-0.123-0.137-0.433-0.17-0.609-0.168-0.117 0.001-0.234 0.010-0.351 0.008l-0.011-0.026c0.061-0.039 0.123-0.078 0.181-0.122 0.001-0.073-0.008-0.113-0.057-0.173-0.044-0.053-0.075-0.055-0.138-0.055-0.249 0.174-0.369 0.476-0.799 0.388-0.051-0.010-0.12-0.037-0.149-0.084-0.038-0.063-0.043-0.117-0.024-0.188 0.055-0.217 0.244-0.395 0.404-0.541-0.161-0.090-0.341-0.188-0.443-0.347-0-0.025-0.009-0.054 0.010-0.072 0.128-0.124 0.415-0.091 0.582-0.093-0.034-0.245-0.122-0.679 0.036-0.892 0.045-0.060 0.081-0.065 0.149-0.079 0.154 0.038 0.248 0.161 0.327 0.292 0.119 0.199 0.152 0.329 0.165 0.558 0.208-0.213 0.458-0.477 0.781-0.483 0.067-0.001 0.11 0.015 0.166 0.051 0.054 0.068 0.071 0.142 0.060 0.228-0.017 0.126-0.080 0.262-0.124 0.382-0.132 0.1-0.555 0.338-0.625 0.438 0.015 0.073 0.462 0.613 0.543 0.74 1.765-0.044 3.532 0.013 5.297-0.018-1.459 0.365-2.504 1.103-3.283 2.401-0.46 0.767-0.805 1.631-1.198 2.435l-1.002 2.061c-0.17 0.348-0.368 0.694-0.516 1.052 0.522 0.181 1.661 0.53 1.911 1.045 0.055 0.113 0.069 0.241 0.026 0.361-0.117 0.324-0.5 0.55-0.799 0.684-0.345 0.154-0.707 0.218-1.071 0.314l-2.108 0.558c-0.221 0.060-0.453 0.095-0.67 0.167-0.347 0.116-0.744 0.279-1.060 0.463-0.196 0.114-0.377 0.255-0.58 0.356 0.28 0.306 0.567 0.711 1.020 0.726 0.131 0.005 0.269-0.022 0.398-0.042 0.475-0.381 0.814-0.996 1.071-1.543l0.367-0.076c-0.167 0.671-0.621 1.369-0.92 1.998-0.476 1.010-0.961 2.016-1.454 3.017-0.286 0.596-0.611 1.377-0.976 1.912-0.31-0.482-0.572-0.992-0.848-1.494-0.307-0.56-0.632-1.11-0.94-1.67-0.344-0.626-0.672-1.268-1.057-1.871l-0.026 0.011c-0.374 0.16-0.694 0.537-0.979 0.819-0.482 0.476-0.951 0.964-1.409 1.464l-0.978 1.069c-0.608 0.675-1.168 1.331-2.025 1.699-0.102 0.044-0.296 0.138-0.402 0.092-0.038-0.017-0.032-0.030-0.044-0.067 0.124-0.396 0.659-0.68 0.859-1.152 0.165-0.39 0.004-1.029 0.302-1.184 0.269-0.14 0.607-0.048 0.913-0.227 0.891-0.519 0.94-1.846 1.553-2.554 0.444-0.512 0.767-0.457 1.274-0.749 0.291-0.168 0.597-0.443 0.79-0.718 0.139-0.198 0.233-0.455 0.333-0.674l0.595-1.314c0.147-0.318 0.338-0.629 0.468-0.951-0.715 0.297-1.435 0.523-2.173 0.75-0.234 0.072-0.462 0.167-0.697 0.233-0.264 0.075-0.541 0.119-0.809 0.177-0.74 0.159-1.431 0.309-2.196 0.261-0.625-0.040-1.28-0.24-1.859-0.477-0.376-0.154-0.616-0.292-1.028-0.352-0.080-0.012-0.274-0-0.316-0.052 0.047-0.055 0.078-0.069 0.152-0.075 0.636-0.052 1.73 0.351 2.394 0.479 0.481 0.093 0.958 0.111 1.447 0.11 1.327-0.001 2.148-0.182 3.298-0.873 0.27-0.163 0.59-0.332 0.801-0.568 0.041-0.046 0.081-0.093 0.12-0.142-1.127 0.662-2.626 1.1-3.94 1.053-0.488-0.018-0.986-0.112-1.458-0.234-1.313-0.34-2.147-1.109-3.607-0.916-0.276 0.036-0.519 0.070-0.766 0.214-0.263 0.153-0.561 0.435-0.643 0.739-0.028 0.104-0.029 0.202 0.029 0.297 0.1 0.166 0.299 0.347 0.492 0.392 0.055 0.013 0.099 0.009 0.154-0.003 0.042-0.031 0.077-0.044 0.088-0.1 0.037-0.182-0.086-0.269 0.1-0.433 0.054-0.048 0.093-0.046 0.161-0.048 0.108 0.043 0.175 0.109 0.223 0.216 0.049 0.11 0.056 0.242 0.009 0.355-0.043 0.103-0.121 0.171-0.224 0.21-0.265 0.102-0.581 0.030-0.829-0.085-0.099-0.046-0.193-0.102-0.291-0.149-0.186-0.297-0.365-0.59-0.278-0.957 0.086-0.365 0.414-0.671 0.726-0.857 0.666-0.398 1.341-0.465 2.096-0.458 0.314 0.003 0.617 0.010 0.922 0.088 0.65 0.166 1.276 0.441 1.923 0.62 0.786 0.218 1.896 0.196 2.689 0.007-0.272-0.041-0.524-0.1-0.778-0.206 0.767-0.121 1.027-0.081 1.755-0.448-1.070 0.231-2.205 0.545-3.209-0.101-0.164-0.105-0.244-0.234-0.348-0.394 0.46 0.249 0.834 0.231 1.341 0.192-0.125-0.186-0.447-0.613-0.394-0.842 0.038-0.162 0.326-0.325 0.436-0.456 0.082-0.098 0.151-0.213 0.218-0.322 0.034-0.024 0.064-0.076 0.094-0.108 0.169-0.188 0.381-0.176 0.614-0.188 0.461 0.071 1.37 0.040 1.846-0.004 0.255 0.206 0.45 0.609 0.584 0.904 0.438-0.004 0.884 0.014 1.319 0.073 0.306 0.042 0.608 0.112 0.914 0.145 0.312 0.034 0.628 0.033 0.881-0.179 0.198-0.165 0.308-0.42 0.33-0.673 0.058-0.649-0.644-1.794-1.044-2.272-0.319 0.255-0.656 0.491-0.985 0.733-0.54 0.397-1.090 0.897-1.762 1.045-0.342 0.075-0.724 0.039-1.074 0.051-0.348-0.004-1.513-0.091-1.723 0.115-0.022 0.021-0.042 0.043-0.058 0.069-0.087 0.093-0.143 0.214-0.218 0.318-0.227 0.314-0.517 0.534-0.87 0.688 0.078-0.121 0.176-0.245 0.153-0.396-0.041-0.044-0.047-0.062-0.111-0.060-0.36 0.008-0.635 0.628-0.854 0.871 0.026-0.124 0.124-0.291 0.086-0.414-0.068-0.031-0.216 0.010-0.299 0.014-0.034 0.002-0.034-0.008-0.058-0.030 0.025-0.061 0.832-0.71 0.958-0.837-0.167-0.364-0.334-0.687-0.572-1.010-0.492-0.012-1.078-0.033-1.553-0.173-0.691-0.204-1.336-0.728-1.668-1.369-0.039-0.076-0.065-0.136-0.038-0.219 0.084-0.021 0.123 0.020 0.182 0.078 0.54 0.529 1.117 0.948 1.846 1.182 0.161 0.052 0.328 0.070 0.49 0.121 0.154 0.049 0.431 0.143 0.584 0.064l-0.008-0.049c-0.104-0.086-0.23-0.115-0.362-0.129-0.515-0.054-1.041-0.266-1.494-0.518-0.332-0.185-0.938-0.58-1.172-0.881-0.083-0.106-0.138-0.251-0.173-0.38-0.098-0.361-0.060-0.598 0.122-0.912 0.004 0.245 0.027 0.415 0.144 0.636 0.416 0.781 1.471 1.401 2.299 1.649 0.109 0.033 0.201 0.063 0.305 0.007 0.004-0.026 0.008-0.050 0.002-0.076-0.045-0.185-0.279-0.518-0.379-0.693-0.62-1.089-1.244-1.889-2.495-2.271-0.144-0.044-0.892-0.124-0.918-0.147-0.005-0.005-0.011-0.010-0.016-0.015l-0.003 0.022-0.030-0.010c0.061-0.037 0.138-0.032 0.207-0.034 0.275-0.010 2.24-0.025 2.351 0.058 0.128 0.095 0.254 0.48 0.337 0.637 0.218 0.411 0.459 0.732 0.801 1.049 1.122 1.036 2.678 1.437 4.176 1.379 0.168 0.204 0.325 0.616 0.506 0.881 0.475-0.090 0.868-0.199 1.279-0.462 0.775-0.495 1.934-1.748 2.334-2.598 0.124-0.264 0.184-0.542 0.247-0.825-0.148 0.081-0.3 0.175-0.46 0.231-0.293 0.104-0.51 0.035-0.779-0.095l-0.010-0.077c0.163-0.014 0.344 0.004 0.509 0.005l-0.002-0.036 0.027 0.009-0.039 0.025 0.063-0.012c-0.227-0.113-0.491-0.135-0.708-0.241-0.022-0.032-0.036-0.051-0.071-0.069-0.037-0.020-0.031-0.021-0.046-0.059 0.047-0.029 0.093-0.046 0.145-0.064-0.003-0.136-0.232-0.506-0.312-0.624-0.060 0.008-0.064 0.003-0.106 0.052-0.004 0.040-0.009 0.081-0.002 0.121 0.018 0.105 0.041 0.254-0.003 0.353-0.002 0.004-0.004 0.008-0.006 0.012-0.142-0.233-0.198-0.457-0.135-0.728 0.027-0.115 0.066-0.226 0.092-0.341-0.288 0.044-0.618 0.112-0.874-0.076-0.1-0.073-0.17-0.179-0.187-0.302-0.038-0.282 0.052-0.587 0.224-0.812 0.147-0.193 0.362-0.345 0.607-0.372 0.214-0.024 0.437 0.056 0.6 0.194 0.076 0.065 0.141 0.148 0.208 0.223 0.125-0.121 0.248-0.245 0.368-0.371zM20.648 17.212c0.556 0.031 1.106 0.067 1.656 0.163 0.352 0.062 0.696 0.162 1.050 0.222 0.149-0.396 0.384-0.782 0.567-1.165 0.386-0.806 0.76-1.619 1.153-2.422 0.244-0.498 0.548-0.993 0.688-1.534 0.11-0.425 0.129-0.996-0.051-1.4-0.11-0.245-0.331-0.577-0.581-0.695-0.143 0.191-0.18 0.442-0.351 0.606-0.414 0.395-0.984 0.362-1.229 0.967-0.309 0.762 0.080 3.044-0.695 3.446-0.587-0.168-0.983-0.683-1.415-1.087-0.151 1.089-0.222 1.85-0.812 2.821l0 0.061 0.021 0.016zM18.873 20.725c0.529-0.013 0.895-0.247 1.344-0.503 0.094-0.054 0.193-0.132 0.293-0.171 0.415-0.152 1.15-0.61 1.537-0.858-0.62 0.035-1.23 0.026-1.85-0-0.311-0.013-0.642-0.060-0.953-0.043-0.17 0.128-0.708 0.703-0.733 0.908-0.029 0.233 0.23 0.493 0.362 0.667zM24.648 10.573c0.082-0.083 0.165-0.158 0.212-0.267-0.001-0.069 0.001-0.102-0.058-0.151-0.040-0.034-0.103-0.058-0.15-0.081-0.040 0.126-0.176 0.44-0.115 0.559 0.060-0.010 0.067-0.020 0.111-0.059zM24.218 9.722c-0.036-0.136-0.072-0.237-0.195-0.316-0.049-0.031-0.113-0.047-0.168-0.064 0.022 0.126 0.017 0.27 0.087 0.375 0.091 0.040 0.182 0.018 0.277 0.005z"></path>
    <path d="M12.638 4.436l0.066 0.033c0.001 0.001 0.043 0.904 0.128 1.16 0.491 1.484 1.742 2.783 2.874 3.815 0.237 0.216 1.976 1.776 1.993 1.918-0.201-0.002-1.941-1.060-2.381-1.203l-0.013-0.004c0.124 0.099 0.249 0.199 0.379 0.29 0.423 0.297 0.867 0.519 1.313 0.772 0.11 0.062 0.217 0.164 0.335 0.207 0.051 0.019 0.088 0.019 0.141 0.008 0.047-0.009 0.086-0.016 0.134-0.016 0.025-0 0.027 0.011 0.044 0.028-0.017 0.059-0.027 0.064-0.071 0.102-0.216-0.015-0.433-0.068-0.645-0.111-1.14-0.23-1.697-0.684-2.614-1.311 0.282 0.324 0.61 0.615 0.991 0.82 0.31 0.167 0.611 0.297 0.895 0.509-1.181-0.139-2.691-1.006-3.438-1.922-0.668-0.819-1.056-1.999-0.943-3.059 0.065-0.608 0.318-1.636 0.813-2.036z"></path>
    <path d="M9.34 7.984c0.033 0.014 0.058 0.032 0.087 0.052 0.090 0.264 0.255 0.517 0.412 0.746 0.902 1.318 3.108 2.23 4.612 2.623 0.215 0.056 0.44 0.061 0.656 0.109 0.207 0.046 0.404 0.116 0.614 0.154 0.37 0.067 0.749 0.034 1.113 0.101l0.007 0.025c-0.623 0.187-2.248-0.12-2.93-0.197 0.293 0.141 0.607 0.191 0.924 0.252 0.723 0.141 1.393 0.259 2.132 0.149-0.002 0.005-0.003 0.010-0.005 0.015-0.108 0.233-1.613 0.221-1.874 0.209-0.273-0.012-0.795-0.104-1.034-0.033 0.442 0.215 1.261 0.202 1.752 0.198 0.161-0.002 0.328-0.029 0.487-0.008l-0.016 0.024c-0.113 0.048-0.228 0.085-0.35 0.103-0.219 0.034-0.465-0.006-0.69 0.012-1.175 0.092-1.934 0.144-3.061-0.275-0.395-0.147-0.74-0.31-1.081-0.562-0.714-0.527-1.398-1.417-1.585-2.298-0.098-0.465-0.1-0.933-0.171-1.399z"></path>
    <path d="M16.659 18.591l0.047 0.024 0.017 0.056c-0.354 0.718-0.866 2.12-1.318 2.676l-0.044-0.005c-0.138-0.158-0.217-0.386-0.336-0.564-0.224-0.323-0.605-1.043-0.743-1.408 0.289-0.102 0.59-0.153 0.883-0.239 0.214-0.063 0.419-0.156 0.632-0.22 0.314-0.094 0.577-0.149 0.861-0.319z"></path>
    <path d="M3.912 12.625c0.352-0.027 0.486 0.059 0.758 0.265-0.158-0.039-0.353-0.127-0.516-0.083-0.152 0.041-0.228 0.185-0.302 0.311-0.003 0.099-0.011 0.208 0.015 0.305 0.126 0.485 0.666 0.914 1.080 1.163 0.549 0.33 1.236 0.557 1.866 0.668 1.102 0.195 2.966 0.13 4.049-0.139 0.012 0.007 0.024 0.031 0.032 0.043-0.015 0.016-0.016 0.019-0.038 0.032-0.178 0.109-0.485 0.109-0.693 0.154-0.365 0.080-0.728 0.182-1.097 0.24-0.875 0.137-1.899 0.114-2.759-0.083-1.034-0.237-2.065-0.727-2.643-1.66-0.136-0.22-0.223-0.456-0.158-0.715 0.054-0.219 0.219-0.389 0.407-0.501z"></path>
    <path d="M17.227 9.382c0.002-0.004 0.004-0.008 0.006-0.012 0.044-0.099 0.021-0.248 0.003-0.353-0.007-0.040-0.002-0.081 0.002-0.121 0.042-0.048 0.046-0.043 0.106-0.052 0.080 0.118 0.309 0.488 0.312 0.624-0.052 0.018-0.099 0.034-0.145 0.064 0.016 0.037 0.009 0.039 0.046 0.059 0.035 0.018 0.049 0.038 0.071 0.069-0.139-0.063-0.313-0.148-0.4-0.278z"></path>
</symbol>

<symbol id="icon-viberContact" viewBox="0 0 33 32">
<path fill="none" stroke="#353334" style="stroke: var(--color1, #353334)" stroke-linejoin="miter" stroke-linecap="butt" stroke-miterlimit="4" stroke-width="0.7273" d="M31.665 16c0 8.427-6.918 15.273-15.469 15.273s-15.469-6.845-15.469-15.273 6.918-15.273 15.469-15.273c8.551 0 15.469 6.845 15.469 15.273z"></path>
<path fill="#353334" style="fill: var(--color1, #353334)" d="M15.557 8.736c-2 0.215-3.813 1.172-5.089 2.692-0.897 1.067-1.455 2.281-1.702 3.697-0.086 0.513-0.095 1.828-0.012 2.355 0.146 0.924 0.465 1.851 0.903 2.626l0.164 0.289-0.423 1.514c-0.23 0.835-0.42 1.565-0.423 1.625-0.006 0.143 0.075 0.256 0.206 0.292 0.098 0.027 0.254-0.015 1.658-0.447l1.547-0.474 0.209 0.119c0.692 0.406 1.625 0.724 2.576 0.885 0.507 0.084 1.854 0.078 2.37-0.012 1.678-0.292 3.121-1.046 4.263-2.233 1.112-1.154 1.786-2.486 2.066-4.096 0.056-0.325 0.063-0.483 0.063-1.222 0-0.933-0.030-1.213-0.218-1.947-0.68-2.627-2.82-4.77-5.45-5.45-0.677-0.173-0.996-0.212-1.828-0.221-0.417-0.006-0.814-0.003-0.88 0.006zM17.844 23.535c1.926 0.173 3.562-1.869 4.579-3.117 2.29-4.579 0.241-7.168 0.495-6.477 0.325 0.879 0.48 1.953 0.412 2.847-0.078 1.002-0.286 1.783-0.707 2.644-1.243 2.54-3.953 4.12-6.732 3.923-1.037-0.075-1.965-0.331-2.793-0.769-0.638-0.34-0.638-0.34-0.716-0.322-0.042 0.009-0.647 0.194-1.35 0.408-0.701 0.215-1.279 0.385-1.288 0.379-0.006-0.009 0.149-0.59 0.346-1.294 0.197-0.707 0.361-1.336 0.364-1.401 0.003-0.101-0.024-0.173-0.161-0.402-0.593-0.996 11.451-5.719 11.368-6.914-0.14-1.968-9.667-2.29-10.43-0.763 0.876-0.88-1.921 10.775-1.486 10.775 0.811-0.209 7.352 0.414 8.1 0.483z"></path>
<path fill="#fcf8ed" style="fill: var(--color2, #fcf8ed)" d="M13.481 12.312c-0.185 0.034-0.198 0.039-0.329 0.184-0.421 0.465-0.783 1.21-0.878 1.813-0.036 0.222-0.036 0.69 0 0.892 0.069 0.385 0.262 0.889 0.542 1.406 1.045 1.929 2.809 3.187 4.519 3.557 0.539 0.116 1.336 0.073 1.781 0 0.755-0.124 1.131-0.297 1.467-0.941 0.105-0.199 0.249-0.628 0.296-0.877 0.049-0.274 0.023-0.31-0.388-0.553-0.19-0.114-0.539-0.331-0.781-0.486-0.624-0.406-0.704-0.445-0.925-0.445-0.247 0-0.308 0.044-0.57 0.398-0.267 0.359-0.663 0.778-0.735 0.778s-0.434-0.202-0.763-0.421c-0.999-0.672-1.834-1.533-1.98-2.040-0.021-0.075-0.013-0.093 0.129-0.251 0.229-0.261 0.357-0.46 0.414-0.644 0.067-0.215 0.064-0.349-0.005-0.566-0.064-0.202-0.511-1.104-0.711-1.438-0.152-0.251-0.241-0.339-0.383-0.38-0.129-0.034-0.462-0.028-0.699 0.013zM14.157 13.054c0.213 0.367 0.36 0.652 0.506 0.977 0.113 0.251 0.274 0.077 0.264 0.172-0.015 0.137-1.086-1.988-1.342-1.708-0.103 0.111-0.94 1.797-0.948 1.833-0.046 0.186 0.319 2.203 0.516 2.534 0.442 0.734 2.345 2.384 3.308 2.857 0.354 0.173 3.197 0.23 3.431 0.114 0.216-0.106 0.461-1.286 0.733-1.658 0.103-0.142-1.84-0.775-1.835-0.78 0.015-0.021 0.149 0.054 0.544 0.313 0.221 0.145 0.534 0.344 0.696 0.442s0.298 0.181 0.3 0.184-0.023 0.101-0.056 0.22c-0.306 1.089-1.14 1.497-2.63 1.28-0.804-0.116-1.621-0.491-2.391-1.094-0.298-0.233-0.866-0.807-1.14-1.153-0.581-0.734-1.12-1.704-1.277-2.304-0.064-0.243-0.077-0.716-0.026-0.954 0.057-0.261 0.157-0.533 0.288-0.789 0.157-0.3 0.398-0.646 0.485-0.69 0.036-0.018 0.146-0.034 0.249-0.034h0.185l0.139 0.238z"></path>
</symbol>


</defs>
</svg>