<svg width="37" height="37" viewBox="0 0 37 37" fill="none" xmlns="http://www.w3.org/2000/svg">
<path d="M36.4501 18.5C36.4501 28.1562 28.5231 36 18.7251 36C8.92705 36 1.00012 28.1562 1.00012 18.5C1.00012 8.84378 8.92705 1 18.7251 1C28.5231 1 36.4501 8.84378 36.4501 18.5Z" stroke="#353334"/>
<path d="M17.9922 10.1773C15.7001 10.4234 13.6232 11.5199 12.1611 13.262C11.1329 14.485 10.4941 15.8753 10.2106 17.4979C10.1115 18.0855 10.1012 19.5919 10.1969 20.1966C10.3643 21.2555 10.7298 22.318 11.2319 23.2061L11.4198 23.5375L10.9348 25.2728C10.6717 26.2293 10.4531 27.0662 10.4497 27.1345C10.4429 27.2985 10.5351 27.4283 10.6853 27.4693C10.7982 27.5 10.9758 27.4522 12.5847 26.9569L14.3576 26.4138L14.5967 26.5504C15.3892 27.015 16.4585 27.3805 17.5482 27.5649C18.1289 27.6606 19.6729 27.6538 20.2639 27.5513C22.1872 27.2166 23.8405 26.3522 25.1489 24.9927C26.4231 23.6707 27.1951 22.1437 27.5162 20.299C27.581 19.9267 27.5879 19.7456 27.5879 18.8985C27.5879 17.8293 27.5537 17.5082 27.3386 16.6679C26.5596 13.6583 24.107 11.2022 21.094 10.4234C20.3186 10.2252 19.953 10.1808 19 10.1705C18.5218 10.1637 18.0674 10.1671 17.9922 10.1773ZM20.6124 27.1345C22.8191 27.3326 24.6934 24.9927 25.8594 23.563C28.4829 18.316 26.1361 15.3492 26.4264 16.1417C26.7988 17.1494 26.9764 18.3792 26.8979 19.4041C26.8091 20.5519 26.5699 21.4468 26.0883 22.434C24.6637 25.3445 21.5586 27.155 18.3749 26.9296C17.1861 26.8442 16.1237 26.5504 15.1741 26.0483C14.443 25.6588 14.443 25.6588 14.3542 25.6793C14.3064 25.6896 13.613 25.9014 12.8067 26.1473C12.004 26.3933 11.3413 26.588 11.3311 26.5812C11.3242 26.5708 11.5018 25.9047 11.7273 25.0986C11.9527 24.2889 12.1406 23.5683 12.1441 23.4931C12.1474 23.3769 12.1167 23.2949 11.9595 23.0319C11.2797 21.891 25.0805 16.4793 24.9849 15.1095C24.8243 12.8549 13.9079 12.4859 13.0334 14.235C14.0376 13.2272 10.8322 26.5812 11.3311 26.5812C12.2601 26.342 19.7549 27.056 20.6124 27.1345Z" fill="#353334"/>
<path d="M15.614 14.2745C15.4021 14.313 15.3874 14.3189 15.2374 14.4848C14.7547 15.0181 14.3397 15.8713 14.2308 16.5617C14.1896 16.8164 14.1896 17.3527 14.2308 17.5838C14.3102 18.0252 14.531 18.6029 14.8518 19.1954C16.0497 21.4056 18.0698 22.8476 20.0299 23.2712C20.648 23.4045 21.5613 23.3544 22.0704 23.2714C22.9357 23.1292 23.3662 22.9314 23.7517 22.1936C23.8724 21.9655 24.0372 21.4738 24.0902 21.1893C24.1461 20.8752 24.1167 20.8338 23.6458 20.5553C23.428 20.425 23.0278 20.1761 22.7511 19.9983C22.0359 19.5331 21.9447 19.4887 21.6916 19.4887C21.409 19.4887 21.3384 19.5391 21.0382 19.945C20.7322 20.3568 20.2789 20.8368 20.1965 20.8368C20.114 20.8368 19.6991 20.6057 19.3223 20.3539C18.1775 19.5836 17.221 18.597 17.0532 18.0163C17.0297 17.9304 17.0385 17.9096 17.2004 17.729C17.4623 17.4297 17.6095 17.2016 17.6743 16.9912C17.7508 16.7453 17.7478 16.5913 17.6684 16.3425C17.5947 16.1113 17.0826 15.0774 16.8531 14.6952C16.6795 14.4078 16.5765 14.3071 16.4146 14.2597C16.2674 14.2211 15.8848 14.227 15.614 14.2745ZM16.3881 15.1248C16.6324 15.5455 16.8001 15.8713 16.9679 16.2447C17.0973 16.5321 17.2818 16.3326 17.27 16.4422C17.2524 16.5992 16.0261 14.1648 15.7318 14.4848C15.614 14.6122 14.6545 16.5438 14.6457 16.5853C14.5928 16.7987 15.0107 19.1095 15.2374 19.4887C15.7436 20.3301 17.9243 22.2203 19.028 22.7625C19.4342 22.961 22.6916 23.0261 22.9594 22.8928C23.2066 22.7714 23.4878 21.4195 23.7998 20.9928C23.9176 20.8299 21.6916 20.105 21.6975 20.099C21.7151 20.0754 21.8682 20.1613 22.3214 20.4575C22.5745 20.6234 22.9336 20.8516 23.119 20.9642C23.3044 21.0767 23.4603 21.1715 23.4633 21.1745C23.4662 21.1774 23.4368 21.29 23.3986 21.4263C23.0484 22.6736 22.0918 23.1417 20.3848 22.8928C19.4636 22.7595 18.5278 22.3299 17.6448 21.6396C17.3034 21.373 16.653 20.7153 16.3381 20.3183C15.6729 19.4769 15.0549 18.3659 14.8753 17.6785C14.8017 17.4001 14.787 16.8579 14.8459 16.5853C14.9107 16.2861 15.0254 15.975 15.1756 15.6817C15.355 15.3381 15.6317 14.941 15.7318 14.8907C15.773 14.87 15.8995 14.8522 16.0173 14.8522H16.2291L16.3881 15.1248Z" fill="#FCF8ED"/>
</svg>
